<?xml version="1.0" encoding="utf-8"?>
<!-- Generator: Adobe Illustrator 21.0.0, SVG Export Plug-In . SVG Version: 6.00 Build 0)  -->
<svg version="1.1" id="Layer_1" xmlns="http://www.w3.org/2000/svg" xmlns:xlink="http://www.w3.org/1999/xlink" x="0px" y="0px"
	 viewBox="0 0 120 120" style="enable-background:new 0 0 120 120;" xml:space="preserve">
<style type="text/css">
	.st0{fill:#725146;}
	.st1{fill:#FFFFFF;}
</style>
<path class="st0" d="M120,20.5v78.9c0,11.3-9.2,20.5-20.5,20.5H20.5C9.2,120,0,110.8,0,99.5V20.5C0,9.2,9.2,0,20.5,0h78.9
	C110.8,0,120,9.2,120,20.5z"/>
<path class="st1" d="M92.1,60.8C91,55,86.6,49.9,81,48.1c-6.1-2-13.3,0.1-17.5,5c-6.3-2.9-14.2-1.7-19.5,2.7c-1.1,1-1.3,2.7-0.4,3.9
	l0,0c0.9,1.2,2.7,1.4,3.9,0.5c3.9-3.2,9.8-4,14.4-1.7c3,1.5,5.4,4.2,7,7.2c4.3,8,3.3,18.4-2.4,25.5c-0.5,0.6-1,1.2-1.3,2
	c-0.7,2.2,2.3,3.1,3.9,3.4c4.2,0.8,8.8-0.1,12-3.1c4-3.8,5.1-10.3,2.5-15.2c5.7-3,9.3-9.5,8.7-15.9C92.3,61.8,92.2,61.3,92.1,60.8z
	 M77,80.1c0.4,0,0.7-0.1,1.1-0.1c0.9,1.2,1.4,2.7,1.4,4.2c0,3.6-2.7,6.6-6.2,7.1C75.2,87.9,76.5,84.1,77,80.1z M78.9,74.1
	c-0.6,0.2-1.2,0.3-1.8,0.3c0-0.3,0-0.7-0.1-1c-0.7-6.9-4-13.2-8.7-17.3c3-3,7.6-4.2,11.9-2.4c3,1.2,5.3,3.8,6.2,6.8
	C88.1,66.6,84.5,72.5,78.9,74.1z"/>
<path class="st1" d="M58.6,25.7c-1.8,0-3.5,0.5-4.9,1.5c-1.9-2.5-4.9-4.1-8.1-4.1c-4.5,0-8.5,3-9.7,7.3c-4.6,0.2-8.3,4-8.3,8.6
	c0,4.2,3,7.8,7.2,8.5h0.1c0.3,0,0.7,0.1,1,0.1c0.5,0.1,0.9,0.2,1.3,0.4l0.6,0.2c1,0.5,1.8,1.3,2.4,2.2c0.7,1.2,1.1,2.5,1.2,3.9
	c0.2-0.3,0.4-0.6,0.7-0.9c2.8-3.3,6.9-5.4,11.6-5.4c2.1,0,4.1,0.4,6,1.2c0.7,0.3,1.3,0.6,2,1c-0.8-1.2-1.8-2.1-2.2-3.5
	c-0.4-1.5,0.2-3.1,1.3-4c1.1-0.9,2.6-1.2,3.8-2.2c1-0.9,1.7-2.1,2.2-3.4c0.3-0.9,0.5-1.9,0.5-2.9C67.2,29.6,63.3,25.7,58.6,25.7z
	 M60.2,41.4c-1.5,1.1-2.4,2.9-2.4,4.8c0,0.6,0.1,1.1,0.2,1.6c-1.4-0.4-2.9-0.6-4.4-0.6c-4.2,0-8.2,1.6-11.2,4.6
	c-0.6-2-1.9-3.6-3.8-4.6c0.2-0.3,0.4-0.5,0.6-0.8c0.1-0.1,0.2-0.2,0.3-0.4c0.2-0.2,0.3-0.4,0.5-0.5c0.2-0.2,0.4-0.4,0.6-0.5
	c0.2-0.2,0.4-0.4,0.5-0.5c0.6-0.5,1.2-1,1.8-1.4l0.2-0.1c0.3-0.2,0.5-0.4,0.8-0.5c2.5-1.4,5.3-2.3,8.1-2.5c0.2,0,0.5,0,0.8,0
	c0.2,0,0.4,0,0.6,0c0.3,0,0.6,0,0.9,0c0.6,0,1.2,0.1,1.8,0.2c0.3,0,0.5,0.1,0.8,0.1c0.1,0,0.3,0.1,0.4,0.1c0.8,0.1,1.5,0.4,2.3,0.6
	c0.2,0.1,0.5,0.2,0.7,0.3c0,0,0,0,0.1,0C60.5,41.2,60.3,41.3,60.2,41.4z M62.6,40.2c-0.1-0.1-0.3-0.1-0.4-0.2c0,0-0.1,0-0.1-0.1
	c-0.1-0.1-0.3-0.1-0.4-0.2c-0.3-0.1-0.6-0.3-1-0.4c-0.1,0-0.2-0.1-0.3-0.1c-0.1,0-0.1-0.1-0.2-0.1c-0.2-0.1-0.4-0.1-0.6-0.2
	c-0.2-0.1-0.4-0.1-0.6-0.2c-0.1,0-0.2-0.1-0.3-0.1c-0.2-0.1-0.4-0.1-0.7-0.2c-0.1,0-0.2,0-0.3-0.1c-0.2,0-0.4-0.1-0.6-0.1
	c-0.4-0.1-0.8-0.1-1.2-0.2c-0.2,0-0.4,0-0.6-0.1h-0.1c-0.3,0-0.7-0.1-1-0.1c-0.2,0-0.5,0-0.7,0c-0.2,0-0.5,0-0.6,0
	c-0.3,0-0.6,0-0.9,0c-0.2,0-0.4,0.1-0.5,0.1c0,0-0.1,0-0.1,0c-0.1,0-0.1,0-0.2,0c-0.3,0-0.5,0.1-0.8,0.1c-0.6,0.1-1.1,0.2-1.7,0.3
	c0,0,0,0,0,0c-0.3,0.1-0.5,0.2-0.8,0.2c-1.3,0.4-2.6,0.9-3.9,1.5c-0.3,0.1-0.5,0.3-0.8,0.4c-0.3,0.1-0.5,0.3-0.8,0.5l-0.2,0.1
	c-0.1,0.1-0.2,0.1-0.3,0.2c-0.4,0.3-0.9,0.6-1.3,0.9c-0.3,0.2-0.7,0.5-1,0.8c-0.1,0.1-0.2,0.1-0.3,0.2c-0.1,0-0.1,0.1-0.2,0.1
	c-0.3,0.3-0.6,0.6-0.9,0.9c-0.1,0.1-0.2,0.2-0.3,0.4c-0.3,0.3-0.6,0.6-0.8,1c-0.1,0.1-0.1,0.2-0.2,0.2c0,0-0.1,0.1-0.1,0.1
	c-0.3-0.1-0.7-0.2-1-0.2c-0.4-0.1-0.8-0.1-1.2-0.1c-3.4-0.6-5.8-3.5-5.8-7c0-3.9,3.2-7.1,7.1-7.1h0.1l0.7,0.1l0.2-0.7
	c0.9-3.9,4.3-6.7,8.3-6.7c3,0,5.7,1.5,7.2,4l0.5,0.8L54,29c1.3-1.1,2.9-1.7,4.6-1.7c3.9,0,7.1,3.2,7.1,7.1
	C65.7,36.8,64.5,38.9,62.6,40.2z"/>
</svg>
