<?xml version="1.0" encoding="utf-8"?>
<!-- Generator: Adobe Illustrator 21.0.0, SVG Export Plug-In . SVG Version: 6.00 Build 0)  -->
<svg version="1.1" id="Layer_1" xmlns="http://www.w3.org/2000/svg" xmlns:xlink="http://www.w3.org/1999/xlink" x="0px" y="0px"
	 viewBox="0 0 112.6 128" style="enable-background:new 0 0 112.6 128;" xml:space="preserve">
<style type="text/css">
	.st0{fill:#FFFFFF;}
</style>
<path class="st0" d="M112.2,65.4c-1.9-10.1-9.5-19-19.3-22.1c-10.6-3.4-23.1,0.2-30.4,8.6c-10.9-5.1-24.7-3-33.9,4.7
	c-2,1.7-2.3,4.6-0.8,6.7l0,0c1.6,2.2,4.6,2.5,6.7,0.8c6.9-5.5,17-6.9,25-2.9c5.3,2.7,9.4,7.4,12.2,12.6c7.4,13.8,5.7,32.1-4.2,44.3
	c-0.9,1.1-1.8,2.1-2.2,3.4c-1.3,3.9,4,5.4,6.8,5.9c7.3,1.5,15.3-0.1,20.9-5.3c7-6.6,8.9-18,4.4-26.5c9.9-5.2,16.1-16.6,15.2-27.7
	C112.4,67.1,112.3,66.3,112.2,65.4z M85.8,98.9c0.7,0,1.3-0.1,2-0.2c1.6,2.1,2.5,4.7,2.5,7.3c0,6.3-4.7,11.5-10.8,12.3
	C82.8,112.5,85,105.9,85.8,98.9z M89.2,88.5c-1,0.3-2.1,0.5-3.2,0.6c0-0.6-0.1-1.2-0.1-1.7c-1.3-12.1-6.9-23-15.1-30.1
	c5.2-5.2,13.1-7.3,20.6-4.2c5.1,2.1,9.1,6.5,10.7,11.9C105.2,75.5,99,85.8,89.2,88.5z"/>
<path class="st0" d="M53.8,4.4c-3.1,0-6,0.9-8.5,2.6C42,2.6,36.8,0,31.2,0c-7.8,0-14.7,5.3-16.9,12.7C6.4,13,0,19.6,0,27.7
	c0,7.4,5.2,13.6,12.5,14.8h0.2c0.6,0,1.1,0.1,1.8,0.2c0.8,0.1,1.6,0.4,2.2,0.6l1.1,0.4c1.7,0.9,3.1,2.3,4.2,3.9
	c1.3,2,1.9,4.4,2.1,6.8c0.4-0.5,0.7-1,1.2-1.5c4.8-5.8,12.1-9.4,20.2-9.4c3.7,0,7.2,0.8,10.4,2.1c1.2,0.5,2.3,1.1,3.4,1.8
	c-1.3-2-3.2-3.7-3.8-6.2c-0.6-2.5,0.3-5.4,2.3-7c2-1.6,4.6-2.1,6.5-3.9c1.8-1.6,3-3.7,3.8-5.9c0.6-1.6,0.9-3.3,0.9-5.1
	C68.9,11.2,62.1,4.4,53.8,4.4z M56.7,31.6c-2.7,1.9-4.3,5-4.3,8.3c0,1,0.1,1.9,0.4,2.8c-2.5-0.7-5-1-7.6-1c-7.3,0-14.2,2.9-19.4,7.9
	c-1.1-3.4-3.4-6.3-6.5-8c0.3-0.5,0.7-0.9,1.1-1.3c0.2-0.2,0.4-0.4,0.6-0.6c0.3-0.3,0.6-0.6,0.9-0.9c0.3-0.3,0.6-0.6,1-0.9
	c0.3-0.3,0.6-0.6,0.9-0.9c1-0.9,2-1.7,3.1-2.4l0.4-0.2c0.5-0.4,0.9-0.6,1.5-0.9c4.3-2.5,9.2-4,14.2-4.4c0.4,0,0.8-0.1,1.4-0.1
	c0.3,0,0.6,0,1,0c0.5,0,1,0,1.6,0c1,0.1,2,0.2,3.1,0.3c0.5,0.1,0.9,0.1,1.4,0.2c0.3,0,0.5,0.1,0.8,0.2c1.4,0.3,2.7,0.6,4,1.1
	c0.4,0.1,0.8,0.3,1.3,0.5c0,0,0.1,0,0.1,0C57.1,31.3,56.9,31.4,56.7,31.6z M60.8,29.6c-0.2-0.1-0.5-0.2-0.7-0.3
	c-0.1,0-0.1-0.1-0.2-0.1c-0.2-0.1-0.5-0.2-0.7-0.3c-0.6-0.2-1.1-0.5-1.7-0.6c-0.2-0.1-0.4-0.2-0.6-0.2c-0.1-0.1-0.3-0.1-0.4-0.2
	c-0.3-0.1-0.6-0.2-1-0.3c-0.3-0.1-0.6-0.2-1-0.3c-0.2,0-0.3-0.1-0.5-0.1c-0.4-0.1-0.7-0.2-1.1-0.3c-0.2,0-0.3-0.1-0.5-0.1
	c-0.4-0.1-0.7-0.1-1-0.2c-0.7-0.1-1.4-0.2-2.1-0.3c-0.3,0-0.7-0.1-1-0.1h-0.1c-0.6,0-1.2-0.1-1.8-0.1c-0.4,0-0.8,0-1.2,0
	c-0.4,0-0.8,0-1.1,0c-0.5,0-1,0-1.5,0.1c-0.3,0-0.6,0.1-0.9,0.1c-0.1,0-0.1,0-0.2,0c-0.1,0-0.3,0.1-0.4,0.1
	c-0.5,0.1-0.9,0.2-1.4,0.2c-1,0.2-2,0.3-2.9,0.5l0,0c-0.5,0.1-0.9,0.3-1.4,0.4c-2.3,0.7-4.6,1.5-6.7,2.7c-0.5,0.2-0.9,0.4-1.4,0.7
	c-0.5,0.3-0.9,0.6-1.4,0.8l-0.3,0.2c-0.2,0.1-0.3,0.2-0.5,0.3c-0.7,0.5-1.5,1-2.2,1.6c-0.6,0.4-1.2,0.9-1.7,1.5
	c-0.2,0.1-0.3,0.3-0.5,0.4c-0.1,0.1-0.2,0.2-0.3,0.3c-0.5,0.5-1,1-1.5,1.6c-0.2,0.2-0.4,0.4-0.5,0.6c-0.5,0.6-1,1.1-1.4,1.7
	c-0.1,0.1-0.2,0.3-0.3,0.4c0,0-0.1,0.1-0.1,0.2c-0.6-0.2-1.1-0.3-1.8-0.4c-0.7-0.1-1.4-0.2-2.1-0.2C7,38.8,2.8,33.7,2.8,27.7
	c0-6.8,5.5-12.3,12.3-12.3h0.2l1.2,0.2l0.3-1.2c1.5-6.7,7.6-11.6,14.4-11.6c5.2,0,9.9,2.6,12.6,7l0.8,1.4l1.2-1
	c2.2-1.9,5-2.9,7.9-2.9c6.8,0,12.3,5.5,12.3,12.3C66.1,23.6,64.1,27.3,60.8,29.6z"/>
</svg>
