<?xml version="1.0" encoding="utf-8"?>
<!-- Generator: Adobe Illustrator 21.0.0, SVG Export Plug-In . SVG Version: 6.00 Build 0)  -->
<svg version="1.1" id="Layer_1" xmlns="http://www.w3.org/2000/svg" xmlns:xlink="http://www.w3.org/1999/xlink" x="0px" y="0px"
	 viewBox="0 0 225.2 256" style="enable-background:new 0 0 225.2 256;" xml:space="preserve">
<path d="M224.3,130.9c-3.8-20.2-19.1-37.9-38.7-44.2c-21.2-6.8-46.2,0.3-60.7,17.3c-21.9-10.2-49.4-5.9-67.8,9.5
	c-4,3.3-4.6,9.2-1.5,13.4l0,0c3.2,4.3,9.3,5,13.5,1.6c13.7-11,34.1-13.8,49.9-5.8c10.6,5.4,18.8,14.7,24.4,25.2
	c14.9,27.7,11.4,64.1-8.4,88.6c-1.7,2.1-3.6,4.2-4.4,6.8c-2.6,7.7,8.1,10.7,13.6,11.8c14.5,2.9,30.7-0.2,41.7-10.6
	c14-13.2,17.7-36,8.7-53C214.5,181,227,158.2,225,136C224.9,134.3,224.7,132.6,224.3,130.9z M171.6,197.8c1.3-0.1,2.6-0.2,3.9-0.4
	c3.1,4.2,4.9,9.3,4.9,14.6c0,12.6-9.5,23-21.7,24.5C165.6,225.1,170,211.8,171.6,197.8z M178.3,177.1c-2.1,0.6-4.2,0.9-6.4,1.2
	c-0.1-1.2-0.1-2.3-0.2-3.5c-2.6-24.1-13.7-46.1-30.2-60.2c10.3-10.5,26.3-14.5,41.2-8.3c10.3,4.3,18.3,13.1,21.4,23.8
	C210.4,150.9,198,171.6,178.3,177.1z"/>
<path d="M107.6,8.8c-6.1,0-12,1.8-17,5.3C83.9,5.3,73.6,0,62.4,0C46.9,0,33,10.6,28.7,25.4C12.7,26.1,0,39.3,0,55.4
	c0,14.7,10.5,27.2,24.9,29.7h0.4c1.2,0.1,2.3,0.2,3.5,0.4c1.6,0.3,3.1,0.7,4.5,1.3l2.1,0.8c3.4,1.8,6.2,4.5,8.3,7.8
	c2.5,4,3.8,8.8,4.2,13.6c0.7-1,1.5-2,2.3-3.1C60,94.4,74.5,87.1,90.7,87.1c7.4,0,14.4,1.6,20.8,4.3c2.4,1,4.7,2.2,6.9,3.6
	c-2.7-4.1-6.4-7.4-7.5-12.3c-1.2-5.1,0.6-10.7,4.7-14c4-3.2,9.2-4.2,13-7.7c3.5-3.2,6-7.4,7.5-11.8c1.1-3.3,1.7-6.7,1.7-10.1
	C137.8,22.3,124.2,8.8,107.6,8.8z M113.4,63.2c-5.3,3.8-8.5,10-8.5,16.6c0,1.9,0.3,3.8,0.8,5.6c-4.9-1.4-10.1-2.1-15.3-2.1
	c-14.6,0-28.5,5.7-38.8,15.8c-2.1-6.8-6.8-12.5-13-16c0.6-0.9,1.4-1.8,2.1-2.7c0.4-0.5,0.8-0.8,1.2-1.3c0.6-0.6,1.2-1.2,1.8-1.9
	c0.6-0.6,1.2-1.2,1.9-1.8c0.6-0.6,1.2-1.2,1.9-1.8c1.9-1.8,4-3.3,6.2-4.8l0.8-0.5c0.9-0.7,1.9-1.3,2.9-1.9c8.6-5,18.3-8,28.3-8.8
	c0.8-0.1,1.7-0.1,2.7-0.1c0.6-0.1,1.3-0.1,2-0.1c1,0,2.1,0.1,3.1,0.1c2.1,0.1,4.1,0.3,6.1,0.6c1,0.1,1.8,0.3,2.7,0.5
	c0.5,0.1,1,0.2,1.6,0.3c2.7,0.5,5.4,1.3,8,2.2c0.8,0.3,1.7,0.6,2.5,1c0.1,0,0.1,0,0.2,0.1C114.2,62.5,113.8,62.8,113.4,63.2z
	 M121.6,59.2c-0.5-0.2-1-0.4-1.4-0.6c-0.2-0.1-0.3-0.1-0.4-0.2c-0.5-0.2-0.9-0.4-1.4-0.6c-1.1-0.5-2.2-0.9-3.3-1.3
	c-0.4-0.1-0.7-0.3-1.1-0.4c-0.3-0.1-0.5-0.3-0.8-0.3c-0.6-0.2-1.3-0.4-2-0.6c-0.6-0.2-1.3-0.4-2-0.6c-0.3-0.1-0.6-0.2-0.9-0.2
	c-0.8-0.3-1.5-0.5-2.3-0.6c-0.3-0.1-0.6-0.1-0.9-0.2c-0.7-0.1-1.4-0.3-2.1-0.4c-1.4-0.3-2.8-0.5-4.2-0.6c-0.6-0.1-1.4-0.1-2.1-0.3
	h-0.3c-1.2-0.1-2.4-0.2-3.6-0.2c-0.8-0.1-1.6-0.1-2.4-0.1c-0.8,0-1.6,0-2.2,0.1c-1,0-2.1,0.1-3,0.1c-0.6,0-1.3,0.2-1.9,0.2
	c-0.1,0-0.2,0-0.3,0c-0.3,0-0.5,0.1-0.8,0.1c-1,0.1-1.9,0.3-2.8,0.5c-2,0.3-3.9,0.6-5.8,1.1l0,0c-0.9,0.2-1.8,0.6-2.7,0.8
	c-4.7,1.3-9.2,3.1-13.5,5.3c-0.9,0.5-1.8,0.9-2.7,1.4c-1,0.5-1.9,1.1-2.7,1.7l-0.6,0.5c-0.3,0.2-0.6,0.4-0.9,0.6
	c-1.5,1-3,2.1-4.3,3.2c-1.2,0.8-2.3,1.8-3.4,2.9c-0.3,0.2-0.6,0.5-1,0.8c-0.2,0.1-0.4,0.3-0.6,0.5c-1,1-2,2-3,3.1
	c-0.4,0.4-0.8,0.8-1,1.2c-1,1.1-1.9,2.2-2.8,3.3c-0.2,0.3-0.5,0.6-0.6,0.8c-0.1,0.1-0.2,0.2-0.3,0.3c-1.1-0.3-2.3-0.6-3.5-0.8
	c-1.4-0.2-2.8-0.4-4.2-0.4C14,77.5,5.5,67.4,5.5,55.4c0-13.6,11-24.6,24.5-24.6h0.5l2.5,0.3l0.6-2.4c3-13.4,15.1-23.2,28.9-23.2
	c10.3,0,19.7,5.3,25.2,14l1.7,2.7l2.5-2.1c4.4-3.8,10.1-5.8,15.8-5.8c13.6,0,24.7,11,24.7,24.6C132.3,47.2,128.3,54.6,121.6,59.2z"
	/>
</svg>
