<?xml version="1.0" encoding="utf-8"?>
<!-- Generator: Adobe Illustrator 21.0.0, SVG Export Plug-In . SVG Version: 6.00 Build 0)  -->
<svg version="1.1" id="Layer_1" xmlns="http://www.w3.org/2000/svg" xmlns:xlink="http://www.w3.org/1999/xlink" x="0px" y="0px"
	 viewBox="0 0 450.5 512" style="enable-background:new 0 0 450.5 512;" xml:space="preserve">
<path d="M448.7,261.7c-7.5-40.3-38.2-75.9-77.3-88.4c-42.5-13.6-92.5,0.6-121.4,34.5c-43.8-20.3-98.8-11.9-135.6,19
	c-7.9,6.7-9.2,18.4-3.1,26.8l0,0c6.3,8.7,18.5,10,26.9,3.3c27.5-22.1,68.2-27.7,99.9-11.7c21.2,10.7,37.6,29.4,48.8,50.4
	c29.7,55.4,22.8,128.3-16.7,177.1c-3.4,4.2-7.1,8.4-8.9,13.6c-5.1,15.5,16.2,21.4,27.2,23.6c29.1,5.9,61.3-0.3,83.4-21.2
	c28-26.4,35.5-72,17.5-105.9c39.5-20.7,64.5-66.3,60.7-110.7C449.8,268.5,449.3,265.1,448.7,261.7z M343.2,395.6
	c2.6-0.2,5.2-0.4,7.8-0.7c6.3,8.5,9.8,18.6,9.8,29.3c0,25.2-19,45.9-43.3,49.1C331.1,450.2,340,423.5,343.2,395.6z M356.7,354.2
	c-4.1,1.2-8.4,1.9-12.8,2.3c-0.2-2.3-0.2-4.7-0.5-6.9c-5.1-48.3-27.5-92.1-60.4-120.3c20.7-21,52.6-29.1,82.5-16.6
	c20.6,8.6,36.6,26.2,42.9,47.5C420.8,301.8,395.9,343.2,356.7,354.2z"/>
<path d="M215.3,17.7c-12.2,0-24,3.6-34,10.5C167.9,10.5,147.2,0,124.9,0C93.7,0,66.1,21.2,57.4,50.8C25.4,52.2,0,78.5,0,110.9
	c0,29.5,20.9,54.4,49.9,59.3h0.8c2.3,0.1,4.5,0.4,7,0.8c3.2,0.5,6.2,1.4,9,2.6l4.3,1.7c6.8,3.6,12.5,9.1,16.6,15.6
	c5.1,8,7.7,17.5,8.4,27.1c1.4-2.1,3-4,4.7-6.1c19.3-23.1,48.3-37.8,80.8-37.8c14.8,0,28.8,3.1,41.5,8.6c4.8,2.1,9.3,4.4,13.8,7.1
	c-5.3-8.2-12.7-14.8-15.1-24.7c-2.5-10.1,1.3-21.4,9.3-27.9c8-6.4,18.4-8.5,26.1-15.4c7-6.3,12-14.7,15.1-23.6
	c2.2-6.5,3.5-13.4,3.5-20.3C275.6,44.7,248.5,17.7,215.3,17.7z M226.8,126.3c-10.6,7.5-17,20-17,33.1c0,3.9,0.5,7.7,1.6,11.3
	c-9.9-2.7-20.1-4.2-30.5-4.2c-29.2,0-57,11.4-77.6,31.7c-4.3-13.6-13.5-25.1-26.1-32.1c1.3-1.8,2.9-3.6,4.3-5.3
	c0.8-0.9,1.6-1.7,2.3-2.6c1.2-1.3,2.3-2.5,3.5-3.8c1.3-1.2,2.5-2.5,3.9-3.6c1.2-1.3,2.5-2.5,3.8-3.5c3.9-3.5,8-6.6,12.3-9.6l1.7-0.9
	c1.8-1.4,3.8-2.6,5.8-3.8c17.1-10,36.6-16.1,56.6-17.5c1.6-0.1,3.4-0.3,5.5-0.3c1.3-0.1,2.6-0.1,4-0.1c2.1,0,4.2,0.1,6.2,0.1
	c4.2,0.3,8.2,0.7,12.2,1.2c1.9,0.3,3.6,0.5,5.5,0.9c1,0.1,2.1,0.4,3.1,0.6c5.5,1,10.8,2.6,16.1,4.4c1.7,0.5,3.4,1.3,5.1,1.9
	c0.1,0,0.3,0,0.4,0.1C228.5,125,227.6,125.7,226.8,126.3z M243.3,118.4c-0.9-0.4-1.9-0.7-2.9-1.1c-0.3-0.1-0.6-0.3-0.9-0.4
	c-0.9-0.4-1.8-0.8-2.7-1.2c-2.2-0.9-4.4-1.8-6.6-2.6c-0.8-0.3-1.4-0.6-2.2-0.8c-0.5-0.3-1-0.5-1.6-0.6c-1.3-0.4-2.6-0.8-4-1.3
	c-1.3-0.4-2.6-0.8-4-1.2c-0.6-0.1-1.2-0.4-1.8-0.4c-1.6-0.5-3-0.9-4.5-1.2c-0.6-0.1-1.2-0.3-1.8-0.4c-1.4-0.3-2.7-0.5-4.2-0.8
	c-2.7-0.5-5.6-0.9-8.4-1.3c-1.3-0.1-2.7-0.3-4.2-0.5h-0.5c-2.3-0.1-4.8-0.4-7.3-0.4c-1.7-0.1-3.2-0.1-4.8-0.1c-1.7,0-3.2,0-4.4,0.1
	c-2.1,0-4.2,0.1-6,0.3c-1.3,0.1-2.5,0.4-3.8,0.5c-0.2,0-0.4,0-0.6,0c-0.5,0.1-1,0.2-1.6,0.3c-1.9,0.2-3.8,0.7-5.7,1
	c-3.9,0.6-7.8,1.2-11.7,2.2l0,0c-1.8,0.4-3.6,1.1-5.4,1.6c-9.3,2.7-18.4,6.1-27,10.6c-1.8,0.9-3.7,1.7-5.4,2.8
	c-1.9,1-3.8,2.2-5.5,3.4l-1.3,0.9c-0.6,0.4-1.3,0.8-1.8,1.3c-3,1.9-6,4.2-8.7,6.5c-2.3,1.7-4.7,3.6-6.9,5.8c-0.6,0.4-1.3,1-1.9,1.7
	c-0.4,0.3-0.8,0.6-1.2,1c-2.1,1.9-4,4-6,6.2c-0.8,0.8-1.6,1.7-2.1,2.5c-2.1,2.2-3.9,4.4-5.6,6.6c-0.4,0.5-0.9,1.2-1.3,1.7
	c-0.1,0.1-0.4,0.4-0.5,0.6c-2.2-0.6-4.5-1.3-7-1.7c-2.9-0.4-5.6-0.8-8.3-0.8C27.9,155,11,134.8,11,110.9c0-27.1,22.1-49.2,49.1-49.2
	H61l4.9,0.6l1.2-4.8c6-26.9,30.3-46.5,57.8-46.5c20.6,0,39.5,10.5,50.4,27.9l3.4,5.5l4.9-4.2c8.8-7.5,20.1-11.6,31.7-11.6
	c27.1,0,49.3,22.1,49.3,49.2C264.6,94.4,256.5,109.2,243.3,118.4z"/>
</svg>
