<?xml version="1.0" encoding="utf-8"?>
<!-- Generator: Adobe Illustrator 21.0.0, SVG Export Plug-In . SVG Version: 6.00 Build 0)  -->
<svg version="1.1" id="Layer_1" xmlns="http://www.w3.org/2000/svg" xmlns:xlink="http://www.w3.org/1999/xlink" x="0px" y="0px"
	 viewBox="0 0 60 60" style="enable-background:new 0 0 60 60;" xml:space="preserve">
<style type="text/css">
	.st0{fill:#725146;}
	.st1{fill:#FFFFFF;}
</style>
<path class="st0" d="M60,10.3v39.5C60,55.4,55.4,60,49.7,60H10.3C4.6,60,0,55.4,0,49.7V10.3C0,4.6,4.6,0,10.3,0h39.5
	C55.4,0,60,4.6,60,10.3z"/>
<path class="st1" d="M46.1,30.4c-0.5-2.9-2.7-5.5-5.6-6.4c-3.1-1-6.6,0-8.7,2.5c-3.1-1.5-7.1-0.9-9.7,1.4c-0.6,0.5-0.7,1.3-0.2,1.9
	l0,0c0.5,0.6,1.3,0.7,1.9,0.2c2-1.6,4.9-2,7.2-0.8c1.5,0.8,2.7,2.1,3.5,3.6c2.1,4,1.6,9.2-1.2,12.7c-0.2,0.3-0.5,0.6-0.6,1
	c-0.4,1.1,1.2,1.5,2,1.7c2.1,0.4,4.4,0,6-1.5c2-1.9,2.6-5.2,1.3-7.6c2.8-1.5,4.6-4.8,4.4-8C46.1,30.9,46.1,30.7,46.1,30.4z M38.5,40
	c0.2,0,0.4,0,0.6-0.1c0.5,0.6,0.7,1.3,0.7,2.1c0,1.8-1.4,3.3-3.1,3.5C37.6,44,38.3,42,38.5,40z M39.5,37.1c-0.3,0.1-0.6,0.1-0.9,0.2
	c0-0.2,0-0.3,0-0.5c-0.4-3.5-2-6.6-4.3-8.7c1.5-1.5,3.8-2.1,5.9-1.2c1.5,0.6,2.6,1.9,3.1,3.4C44.1,33.3,42.3,36.3,39.5,37.1z"/>
<path class="st1" d="M29.3,12.9c-0.9,0-1.7,0.3-2.4,0.8c-1-1.3-2.4-2-4.1-2c-2.2,0-4.2,1.5-4.9,3.6c-2.3,0.1-4.1,2-4.1,4.3
	c0,2.1,1.5,3.9,3.6,4.3h0.1c0.2,0,0.3,0,0.5,0.1c0.2,0,0.4,0.1,0.6,0.2l0.3,0.1c0.5,0.3,0.9,0.7,1.2,1.1c0.4,0.6,0.6,1.3,0.6,2
	c0.1-0.1,0.2-0.3,0.3-0.4c1.4-1.7,3.5-2.7,5.8-2.7c1.1,0,2.1,0.2,3,0.6c0.3,0.1,0.7,0.3,1,0.5c-0.4-0.6-0.9-1.1-1.1-1.8
	c-0.2-0.7,0.1-1.5,0.7-2c0.6-0.5,1.3-0.6,1.9-1.1c0.5-0.5,0.9-1.1,1.1-1.7c0.2-0.5,0.3-1,0.3-1.5C33.6,14.8,31.7,12.9,29.3,12.9z
	 M30.1,20.7c-0.8,0.5-1.2,1.4-1.2,2.4c0,0.3,0,0.6,0.1,0.8c-0.7-0.2-1.4-0.3-2.2-0.3c-2.1,0-4.1,0.8-5.6,2.3c-0.3-1-1-1.8-1.9-2.3
	c0.1-0.1,0.2-0.3,0.3-0.4c0.1-0.1,0.1-0.1,0.2-0.2c0.1-0.1,0.2-0.2,0.3-0.3c0.1-0.1,0.2-0.2,0.3-0.3c0.1-0.1,0.2-0.2,0.3-0.3
	c0.3-0.3,0.6-0.5,0.9-0.7l0.1-0.1c0.1-0.1,0.3-0.2,0.4-0.3c1.2-0.7,2.6-1.2,4.1-1.3c0.1,0,0.2,0,0.4,0c0.1,0,0.2,0,0.3,0
	c0.1,0,0.3,0,0.4,0c0.3,0,0.6,0,0.9,0.1c0.1,0,0.3,0,0.4,0.1c0.1,0,0.1,0,0.2,0c0.4,0.1,0.8,0.2,1.2,0.3c0.1,0,0.2,0.1,0.4,0.1
	c0,0,0,0,0,0C30.2,20.6,30.2,20.6,30.1,20.7z M31.3,20.1c-0.1,0-0.1-0.1-0.2-0.1c0,0,0,0-0.1,0c-0.1,0-0.1-0.1-0.2-0.1
	c-0.2-0.1-0.3-0.1-0.5-0.2c-0.1,0-0.1,0-0.2-0.1c0,0-0.1,0-0.1,0c-0.1,0-0.2-0.1-0.3-0.1c-0.1,0-0.2-0.1-0.3-0.1c0,0-0.1,0-0.1,0
	c-0.1,0-0.2-0.1-0.3-0.1c0,0-0.1,0-0.1,0c-0.1,0-0.2,0-0.3-0.1c-0.2,0-0.4-0.1-0.6-0.1c-0.1,0-0.2,0-0.3,0h0c-0.2,0-0.3,0-0.5,0
	c-0.1,0-0.2,0-0.3,0c-0.1,0-0.2,0-0.3,0c-0.1,0-0.3,0-0.4,0c-0.1,0-0.2,0-0.3,0c0,0,0,0,0,0c0,0-0.1,0-0.1,0c-0.1,0-0.3,0-0.4,0.1
	c-0.3,0-0.6,0.1-0.8,0.2c0,0,0,0,0,0c-0.1,0-0.3,0.1-0.4,0.1c-0.7,0.2-1.3,0.4-1.9,0.8c-0.1,0.1-0.3,0.1-0.4,0.2
	c-0.1,0.1-0.3,0.2-0.4,0.2l-0.1,0.1c0,0-0.1,0.1-0.1,0.1c-0.2,0.1-0.4,0.3-0.6,0.5c-0.2,0.1-0.3,0.3-0.5,0.4c0,0-0.1,0.1-0.1,0.1
	c0,0-0.1,0-0.1,0.1c-0.1,0.1-0.3,0.3-0.4,0.4c-0.1,0.1-0.1,0.1-0.1,0.2c-0.1,0.2-0.3,0.3-0.4,0.5c0,0-0.1,0.1-0.1,0.1c0,0,0,0,0,0
	c-0.2,0-0.3-0.1-0.5-0.1c-0.2,0-0.4-0.1-0.6-0.1c-1.7-0.3-2.9-1.8-2.9-3.5c0-2,1.6-3.5,3.5-3.5h0.1l0.4,0l0.1-0.3
	c0.4-1.9,2.2-3.3,4.2-3.3c1.5,0,2.8,0.8,3.6,2l0.2,0.4l0.4-0.3c0.6-0.5,1.4-0.8,2.3-0.8c2,0,3.5,1.6,3.5,3.5
	C32.8,18.4,32.3,19.4,31.3,20.1z"/>
</svg>
