<?xml version="1.0" encoding="utf-8"?>
<!-- Generator: Adobe Illustrator 21.0.0, SVG Export Plug-In . SVG Version: 6.00 Build 0)  -->
<svg version="1.1" id="Layer_1" xmlns="http://www.w3.org/2000/svg" xmlns:xlink="http://www.w3.org/1999/xlink" x="0px" y="0px"
	 viewBox="0 0 90 90" style="enable-background:new 0 0 90 90;" xml:space="preserve">
<style type="text/css">
	.st0{fill:#725146;}
	.st1{fill:#FFFFFF;}
</style>
<path class="st0" d="M90,15.4v59.2C90,83.1,83.1,90,74.6,90H15.4C6.9,90,0,83.1,0,74.6V15.4C0,6.9,6.9,0,15.4,0h59.2
	C83.1,0,90,6.9,90,15.4z"/>
<path class="st1" d="M69.1,45.6c-0.8-4.3-4.1-8.2-8.3-9.5c-4.6-1.5-10,0.1-13.1,3.7c-4.7-2.2-10.7-1.3-14.6,2c-0.9,0.7-1,2-0.3,2.9
	l0,0c0.7,0.9,2,1.1,2.9,0.4c3-2.4,7.4-3,10.8-1.3c2.3,1.2,4.1,3.2,5.3,5.4c3.2,6,2.5,13.8-1.8,19.1c-0.4,0.5-0.8,0.9-1,1.5
	c-0.6,1.7,1.7,2.3,2.9,2.5c3.1,0.6,6.6,0,9-2.3c3-2.8,3.8-7.8,1.9-11.4c4.3-2.2,7-7.1,6.5-11.9C69.2,46.4,69.2,46,69.1,45.6z
	 M57.7,60.1c0.3,0,0.6,0,0.8-0.1c0.7,0.9,1.1,2,1.1,3.2c0,2.7-2,5-4.7,5.3C56.4,65.9,57.4,63.1,57.7,60.1z M59.2,55.6
	c-0.4,0.1-0.9,0.2-1.4,0.2c0-0.2,0-0.5-0.1-0.7c-0.6-5.2-3-9.9-6.5-13c2.2-2.3,5.7-3.1,8.9-1.8c2.2,0.9,3.9,2.8,4.6,5.1
	C66.1,49.9,63.4,54.4,59.2,55.6z"/>
<path class="st1" d="M43.9,19.3c-1.3,0-2.6,0.4-3.7,1.1c-1.4-1.9-3.7-3-6.1-3c-3.4,0-6.3,2.3-7.3,5.5c-3.4,0.2-6.2,3-6.2,6.5
	c0,3.2,2.3,5.9,5.4,6.4h0.1c0.3,0,0.5,0,0.8,0.1c0.3,0.1,0.7,0.2,1,0.3l0.5,0.2c0.7,0.4,1.3,1,1.8,1.7c0.5,0.9,0.8,1.9,0.9,2.9
	c0.2-0.2,0.3-0.4,0.5-0.7c2.1-2.5,5.2-4.1,8.7-4.1c1.6,0,3.1,0.3,4.5,0.9c0.5,0.2,1,0.5,1.5,0.8c-0.6-0.9-1.4-1.6-1.6-2.7
	c-0.3-1.1,0.1-2.3,1-3c0.9-0.7,2-0.9,2.8-1.7c0.8-0.7,1.3-1.6,1.6-2.5c0.2-0.7,0.4-1.4,0.4-2.2C50.4,22.2,47.5,19.3,43.9,19.3z
	 M45.2,31c-1.1,0.8-1.8,2.2-1.8,3.6c0,0.4,0.1,0.8,0.2,1.2c-1.1-0.3-2.2-0.4-3.3-0.4c-3.2,0-6.1,1.2-8.4,3.4
	c-0.5-1.5-1.5-2.7-2.8-3.5c0.1-0.2,0.3-0.4,0.5-0.6c0.1-0.1,0.2-0.2,0.3-0.3c0.1-0.1,0.3-0.3,0.4-0.4c0.1-0.1,0.3-0.3,0.4-0.4
	c0.1-0.1,0.3-0.3,0.4-0.4c0.4-0.4,0.9-0.7,1.3-1l0.2-0.1c0.2-0.2,0.4-0.3,0.6-0.4c1.8-1.1,3.9-1.7,6.1-1.9c0.2,0,0.4,0,0.6,0
	c0.1,0,0.3,0,0.4,0c0.2,0,0.4,0,0.7,0c0.4,0,0.9,0.1,1.3,0.1c0.2,0,0.4,0.1,0.6,0.1c0.1,0,0.2,0,0.3,0.1c0.6,0.1,1.2,0.3,1.7,0.5
	c0.2,0.1,0.4,0.1,0.5,0.2c0,0,0,0,0,0C45.4,30.9,45.3,30.9,45.2,31z M46.9,30.2c-0.1,0-0.2-0.1-0.3-0.1c0,0-0.1,0-0.1,0
	c-0.1,0-0.2-0.1-0.3-0.1c-0.2-0.1-0.5-0.2-0.7-0.3c-0.1,0-0.2-0.1-0.2-0.1c-0.1,0-0.1-0.1-0.2-0.1c-0.1,0-0.3-0.1-0.4-0.1
	c-0.1,0-0.3-0.1-0.4-0.1c-0.1,0-0.1,0-0.2,0c-0.2-0.1-0.3-0.1-0.5-0.1c-0.1,0-0.1,0-0.2,0c-0.2,0-0.3-0.1-0.4-0.1
	c-0.3-0.1-0.6-0.1-0.9-0.1c-0.1,0-0.3,0-0.4-0.1h-0.1c-0.3,0-0.5,0-0.8,0c-0.2,0-0.4,0-0.5,0c-0.2,0-0.4,0-0.5,0c-0.2,0-0.4,0-0.6,0
	c-0.1,0-0.3,0-0.4,0.1c0,0,0,0-0.1,0c-0.1,0-0.1,0-0.2,0c-0.2,0-0.4,0.1-0.6,0.1c-0.4,0.1-0.8,0.1-1.3,0.2c0,0,0,0,0,0
	c-0.2,0-0.4,0.1-0.6,0.2c-1,0.3-2,0.7-2.9,1.1c-0.2,0.1-0.4,0.2-0.6,0.3c-0.2,0.1-0.4,0.2-0.6,0.4l-0.1,0.1c-0.1,0-0.1,0.1-0.2,0.1
	c-0.3,0.2-0.6,0.4-0.9,0.7c-0.3,0.2-0.5,0.4-0.7,0.6c-0.1,0-0.1,0.1-0.2,0.2c0,0-0.1,0.1-0.1,0.1c-0.2,0.2-0.4,0.4-0.6,0.7
	c-0.1,0.1-0.2,0.2-0.2,0.3c-0.2,0.2-0.4,0.5-0.6,0.7c0,0.1-0.1,0.1-0.1,0.2c0,0,0,0-0.1,0.1c-0.2-0.1-0.5-0.1-0.8-0.2
	c-0.3,0-0.6-0.1-0.9-0.1c-2.5-0.5-4.3-2.6-4.3-5.2c0-2.9,2.4-5.3,5.3-5.3h0.1l0.5,0.1l0.1-0.5c0.6-2.9,3.3-5,6.2-5
	c2.2,0,4.3,1.1,5.4,3l0.4,0.6l0.5-0.4c1-0.8,2.2-1.2,3.4-1.2c2.9,0,5.3,2.4,5.3,5.3C49.2,27.6,48.4,29.2,46.9,30.2z"/>
</svg>
