<?xml version="1.0" encoding="utf-8"?>
<!-- Generator: Adobe Illustrator 21.0.0, SVG Export Plug-In . SVG Version: 6.00 Build 0)  -->
<svg version="1.1" id="Layer_1" xmlns="http://www.w3.org/2000/svg" xmlns:xlink="http://www.w3.org/1999/xlink" x="0px" y="0px"
	 viewBox="0 0 828 200" style="enable-background:new 0 0 828 200;" xml:space="preserve">
<style type="text/css">
	.st0{fill:#725146;}
</style>
<g>
	<g>
		<g>
			<path class="st0" d="M660.9,110.3c0.6,0.8,1.3,1.5,2.2,2c0.9,0.5,2,0.8,3.3,0.8c0.8,0,1.8-0.3,2.8-0.8c1-0.5,2-1.3,2.9-2.4
				c0.9-1,1.7-2.4,2.3-4c0.6-1.6,0.9-3.4,0.9-5.5c0-0.8-0.1-1.8-0.3-2.8c-0.2-1-0.5-2-1-2.9c-0.5-0.9-1.2-1.7-2.1-2.3
				c-0.9-0.6-2-0.9-3.5-0.9c-1.1,0-2.2,0.4-3.3,1.1c-1.1,0.8-2.1,1.7-2.9,3c-0.9,1.2-1.5,2.6-2.1,4.1c-0.5,1.5-0.8,3.1-0.8,4.6
				c0,1,0.1,2,0.4,3.1C659.9,108.6,660.3,109.5,660.9,110.3z"/>
		</g>
		<g>
			<g>
				<path class="st0" d="M827.8,147c-0.1-0.4-0.4-0.6-0.9-0.6c-0.6,0-1.1,0.4-1.5,1.1c-0.2,0.4-0.6,1.1-1.2,2.2
					c-0.5,1.1-1.2,2.3-2.1,3.7c-0.9,1.4-2,2.9-3.3,4.4c-1.3,1.6-2.9,3-4.7,4.5c0.7-1.2,1.2-2.4,1.6-3.8c0.4-1.3,0.5-2.8,0.5-4.4
					c0-1.3-0.2-2.6-0.6-3.9c-0.4-1.3-1-2.7-1.6-4.1c-0.7-1.4-1.4-2.8-2.2-4.3c-0.8-1.5-1.6-2.9-2.3-4.4c-1.1-2-1.9-3.7-2.4-5.1
					c-0.5-1.3-0.9-2.5-1.1-3.4c-0.2-1-0.4-1.8-0.5-2.4c-0.1-0.7-0.3-1.3-0.5-1.9c-0.4-1.4-0.9-2.5-1.5-3.4c-0.5-0.9-1.2-1.5-2-1.9
					c-0.8-0.4-1.9-0.6-3.1-0.5c-1.2,0-2.8,0.3-4.8,0.8c-1.9,0.4-3.3,0.9-4.2,1.4c-1,0.5-1.7,1-2.1,1.5c-0.4,0.5-0.7,1.1-0.7,1.7
					c0,0.6,0,1.3,0.1,2.1l0.1,0.7c0.1,1.1,0.1,1.9,0.1,2.4c0,0.5,0,0.9,0,1.3c0,1.3-0.2,2.7-0.4,4.3c-0.2,1.6-0.5,3.4-1,5.4
					c-0.5,2-1.1,4.1-1.9,6.4c-0.4,1.2-0.9,2.4-1.4,3.7c-0.1,0.3-0.3,0.5-0.4,0.8c-0.5,0.9-1.1,1.9-1.9,3c-0.6,0-1,0.2-1.3,0.8
					c-0.2,0.5-0.4,1-0.6,1.7c-0.4,0.5-0.9,1-1.3,1.5c-1,1.1-2.2,2.1-3.4,3c-1.2,0.9-2.6,1.6-4.1,2.1c-1.5,0.5-3,0.8-4.6,0.8
					c-1.3,0-2.6-0.3-4.1-0.8c-1.4-0.6-2.8-1.5-4-2.7c-1.2-1.3-2.3-3-3.1-5.1c-0.8-2.1-1.2-4.7-1.2-7.9c0-2.2,0.2-4.5,0.6-6.9
					c0.4-2.4,1-4.5,1.8-6.4c0.8-1.9,1.7-3.5,2.9-4.7c1.1-1.2,2.5-1.8,4-1.8c1.4,0,2.5,0.6,3.3,1.7c0.8,1.1,1.4,2.4,1.7,3.9
					c0.4,1.5,0.6,3,0.7,4.5c0.1,1.5,0.1,2.6,0.1,3.4c0,1.4-0.4,2.3-1.1,2.7c-0.8,0.4-1.8,0.6-3,0.5c-0.8,0-1.5-0.1-2.2-0.2
					c-0.7-0.1-1.4-0.2-2.1-0.3c-0.7-0.1-1.3-0.2-1.8-0.2c-0.5,0-0.9-0.1-1.1-0.1c-0.3,0-0.6,0.1-0.8,0.3c-0.3,0.2-0.5,0.5-0.7,0.8
					c-0.2,0.3-0.4,0.7-0.5,1.1c-0.1,0.4-0.2,0.6-0.2,0.8c0,0.5,0.4,1,1.3,1.6c0.9,0.6,2,1.2,3.5,1.7c1.4,0.5,3,1,4.8,1.4
					c1.8,0.4,3.5,0.5,5.3,0.5c1.9,0,3.6-0.4,4.9-1.1c1.3-0.7,2.4-1.6,3.2-2.7c0.8-1.1,1.4-2.4,1.7-3.9c0.3-1.5,0.5-3,0.5-4.5
					c0-3-0.4-5.6-1.3-7.9c-0.9-2.3-2.1-4.2-3.7-5.7c-1.6-1.5-3.5-2.7-5.7-3.4c-2.2-0.8-4.6-1.2-7.2-1.2c-1.9,0-3.6,0.2-5.3,0.7
					c-2.9,0.7-5.6,2-7.9,3.9c-2.4,1.9-4.4,4.1-6,6.7c-1.7,2.6-2.9,5.4-3.8,8.4c-0.9,3-1.4,6.1-1.4,9.2c0,1,0.1,2,0.2,3
					c-0.5,0.7-1.1,1.5-1.8,2.3c-1.1,1.3-2.3,2.6-3.5,3.8c-1.2,1.2-2.6,2.2-4.1,3c1.1-2.3,1.9-4.9,2.6-7.9c0.7-3,1-6,1-9
					c0-1.9-0.1-3.9-0.4-5.9c-0.3-2.4-0.9-4.8-1.7-7c-0.8-2.2-1.8-4.1-2.9-5.8c-1.2-1.7-2.6-3-4.2-3.9c-1.6-1-3.4-1.5-5.5-1.5
					c-2,0-3.7,0.2-5.2,0.7c-2.3,0.7-4.3,1.9-5.9,3.4c-1.6,1.5-3,3.1-4.2,4.8c0.1-2.8,0.2-5.5,0.4-8.2c0.1-2.7,0.3-5.3,0.6-7.8
					c0-2-0.5-3.6-1.5-4.6c-1.1-1.1-2.6-1.5-4.5-1.2c-2.3,0.4-4.3,1-5.8,1.9c-1.5,0.9-2.8,2-3.7,3.4c-1,1.3-1.6,2.9-2,4.6
					c-0.4,1.8-0.6,3.7-0.6,5.8c0,5.8,0.1,11.8,0.3,17.9c0.1,3.6,0.2,7.2,0.2,10.7c-0.1,0.2-0.2,0.3-0.3,0.5
					c-0.9,1.2-1.7,2.4-2.7,3.4c-0.9,1-1.9,1.9-2.9,2.6c-1,0.7-2,1.1-3,1.1c-0.8,0-1.4-0.6-1.8-1.9c-0.4-1.2-0.7-2.9-0.8-4.9
					c-0.1-2-0.2-4.3-0.1-6.8c0.1-2.5,0.2-5,0.3-7.6c0.1-2.5,0.3-4.9,0.4-7.2c0.1-2.3,0.2-4.1,0.2-5.6c0-0.7-0.1-1.4-0.1-2.1
					c-0.1-0.7-0.3-1.3-0.5-1.8c-0.3-0.5-0.6-1-1.1-1.3c-0.4-0.3-1-0.5-1.7-0.5c-1.2,0-2.4,0.1-3.7,0.4c-1.3,0.2-2.5,0.6-3.6,1
					c-1.1,0.4-2.1,0.9-3,1.4c-0.9,0.6-1.4,1.1-1.7,1.7c-0.4,0.8-0.7,2.1-0.9,3.8c-0.2,1.7-0.4,3.5-0.5,5.6c-0.1,2-0.1,4.2-0.1,6.3
					c0,2.2,0,4.1,0,5.9c0,1.8,0,3.2,0.1,4.2c0,0.2,0,0.4,0,0.5c-0.7,1.1-1.5,2.2-2.4,3.4c-1.1,1.5-2.4,3-3.8,4.2
					c-1.4,1.3-3.1,2.4-4.9,3.3c-1.8,0.9-3.8,1.3-5.9,1.3c-1.3,0-2.5-0.2-3.8-0.7c-1.3-0.5-2.5-1.4-3.5-2.6c-1-1.2-1.9-2.9-2.6-5.1
					c-0.7-2.1-1-4.9-1-8.1c0-2.2,0.2-4.5,0.6-6.9c0.4-2.4,1-4.5,1.8-6.4c0.8-1.9,1.7-3.5,2.9-4.7c1.1-1.2,2.5-1.8,4-1.8
					c1,0,1.7,0.4,2.1,1.1c0.4,0.7,0.7,1.6,0.8,2.7c0.1,1.1,0.2,2.2,0.1,3.4c0,1.2,0,2.4,0.1,3.4c0.1,1.1,0.4,2,0.8,2.7
					c0.4,0.7,1.1,1.1,2.1,1.1c0.9,0,1.7-0.3,2.6-0.8c0.8-0.6,1.5-1.3,2.2-2.2c0.6-0.9,1.1-1.8,1.5-2.8c0.4-1,0.5-1.9,0.5-2.8
					c0-2.7-0.5-4.8-1.4-6.4c-0.9-1.6-2.1-2.7-3.4-3.5c-1.3-0.8-2.8-1.3-4.4-1.5c-1.6-0.2-3-0.3-4.3-0.3c-3.7,0-7.1,0.8-10.1,2.5
					c-3,1.7-5.6,3.9-7.7,6.6c-2.1,2.7-3.8,5.8-4.9,9.3c-1.2,3.5-1.8,7-1.8,10.5c0,1.3,0.1,2.5,0.3,3.8c-0.1,0.2-0.2,0.4-0.4,0.6
					c-0.8,1.1-1.8,2.2-2.8,3.4c-1,1.1-2.2,2.1-3.4,3c-1.2,0.9-2.6,1.6-4.1,2.1c-1.5,0.5-3,0.8-4.6,0.8c-1.3,0-2.6-0.3-4.1-0.8
					c-1.4-0.6-2.8-1.5-4-2.7c-1.2-1.3-2.3-3-3.1-5.1c-0.8-2.1-1.2-4.7-1.2-7.9c0-2.2,0.2-4.5,0.6-6.9c0.4-2.4,1-4.5,1.8-6.4
					c0.8-1.9,1.7-3.5,2.9-4.7c1.1-1.2,2.5-1.8,4-1.8c1.4,0,2.5,0.6,3.3,1.7c0.8,1.1,1.4,2.4,1.7,3.9c0.4,1.5,0.6,3,0.7,4.5
					c0.1,1.5,0.1,2.6,0.1,3.4c0,1.4-0.4,2.3-1.1,2.7c-0.8,0.4-1.8,0.6-3,0.5c-0.8,0-1.5-0.1-2.2-0.2c-0.7-0.1-1.4-0.2-2.1-0.3
					c-0.7-0.1-1.3-0.2-1.8-0.2c-0.5,0-0.9-0.1-1.1-0.1c-0.3,0-0.6,0.1-0.8,0.3c-0.3,0.2-0.5,0.5-0.7,0.8c-0.2,0.3-0.4,0.7-0.5,1.1
					c-0.1,0.4-0.2,0.6-0.2,0.8c0,0.5,0.4,1,1.3,1.6c0.9,0.6,2,1.2,3.5,1.7c1.4,0.5,3,1,4.8,1.4c1.8,0.4,3.5,0.5,5.3,0.5
					c1.9,0,3.6-0.4,4.9-1.1c1.3-0.7,2.4-1.6,3.2-2.7c0.8-1.1,1.4-2.4,1.7-3.9s0.5-3,0.5-4.5c0-3-0.4-5.6-1.3-7.9
					c-0.9-2.3-2.1-4.2-3.7-5.7c-1.6-1.5-3.5-2.7-5.7-3.4c-2.2-0.8-4.6-1.2-7.2-1.2c-1.9,0-3.6,0.2-5.3,0.7c-2.9,0.7-5.6,2-7.9,3.9
					c-2.4,1.9-4.4,4.1-6,6.7c-1.7,2.6-2.9,5.4-3.8,8.4c-0.9,3-1.4,6.1-1.4,9.2c0,1.4,0.1,2.7,0.4,4c-0.2,0.3-0.5,0.6-0.7,1
					c-1.3,1.8-2.6,3.1-3.9,3.8c-1.3,0.7-2.4,1.1-3.3,1.1c-1.2,0-2.5-0.5-3.8-1.4c-1.3-1-2.7-2.2-4-3.8c-1.3-1.6-2.6-3.4-3.7-5.5
					c-1.2-2.1-2.2-4.2-3.1-6.5c-0.9-2.2-1.6-4.5-2.1-6.7c-0.5-2.2-0.8-4.3-0.8-6.2c0.7-0.7,1.5-1.4,2.3-2.1c0.6-0.6,1.3-1.2,2-1.8
					c0.7-0.6,1.3-1.2,1.9-1.8c1.4-1.3,2.6-2.7,3.8-4.3c1.2-1.5,2.2-3.2,3-5.1c0.9-1.9,1.5-3.9,2-6.1c0.5-2.2,0.7-4.7,0.7-7.5
					c0-4.6-0.8-8.8-2.4-12.6c-1.6-3.8-3.8-7.2-6.4-10.2c-2.7-3-5.8-5.7-9.3-7.9c-3.5-2.2-7.2-4.1-11-5.6c-3.8-1.5-7.7-2.6-11.5-3.4
					s-7.5-1.1-10.8-1.1c-6.5,0-12.7,0.9-18.4,2.8c-5.7,1.9-11,4.4-15.8,7.7c-4.8,3.3-9.2,7.2-13,11.7c-3.8,4.5-7.1,9.4-9.7,14.6
					c-2.6,5.3-4.7,10.8-6.1,16.6c-1.4,5.8-2.1,11.7-2.1,17.7c0,3.7,0.3,7.3,1,10.9c0.7,3.6,1.7,7.1,3.1,10.4c1.4,3.3,3,6.4,5,9.3
					c2,2.9,4.3,5.4,7,7.5c2.6,2.1,5.6,3.8,8.9,5c3.3,1.2,6.9,1.8,10.7,1.8c4.1,0,7.8-0.6,11.2-1.9c3.4-1.3,6.4-3,9-5.2
					c2.7-2.2,5-4.7,7-7.5c2-2.9,3.8-5.9,5.3-9c1.5-3.2,2.8-6.4,3.8-9.6c1-3.2,1.8-6.3,2.4-9.3c0.6-2.9,1-5.7,1.3-8.1
					c0.3-2.5,0.4-4.5,0.4-6c0-3.4-0.2-6.8-0.7-10.2c-0.5-3.4-1.2-6.5-2.2-9.5c-1-2.9-2.3-5.6-3.8-8.1c-1.6-2.4-3.4-4.4-5.6-6
					c-1.6,0-3.3,0.2-5.1,0.7c-1.8,0.5-3.5,1.2-5.1,2.1c-1.6,0.9-3,2-4.2,3.3c-1.2,1.3-2,2.7-2.5,4.2c0.7,0.8,1.5,2.5,2.5,5.1
					c1,2.5,1.9,5.6,2.7,9.1c0.9,3.5,1.6,7.4,2.2,11.6c0.6,4.2,0.9,8.5,0.9,12.7c0,3.7-0.4,7.4-1.1,11.1c-0.7,3.7-1.9,7.1-3.5,10.1
					c-1.6,3-3.8,5.4-6.4,7.3c-2.6,1.9-5.8,2.8-9.6,2.8c-3,0-5.7-0.5-8.1-1.6c-2.4-1.1-4.5-2.5-6.4-4.4c-1.9-1.8-3.5-3.9-4.8-6.4
					c-1.3-2.4-2.5-5-3.3-7.6c-0.9-2.7-1.5-5.4-1.9-8.1c-0.4-2.7-0.6-5.3-0.6-7.8c0-6.8,1.1-13.4,3.4-19.8c2.2-6.4,5.4-12.3,9.5-17.6
					c4.1-5.3,9.1-9.7,15-13.3c5.9-3.6,12.4-5.9,19.7-7c4.9,0,9.3,0.7,13.1,2.1c3.8,1.4,7,3.4,9.8,5.8c2.7,2.5,5,5.4,6.7,8.7
					c1.8,3.3,3.1,6.9,4,10.8c0.5,2,0.7,4.4,0.7,7c0,2.6-0.5,5.3-1.5,8c-1,2.7-2.4,5.2-4.5,7.7c-2,2.4-4.8,4.4-8.3,6
					c0.1,6,0.9,11.2,2.2,15.8c1.3,4.6,2.9,8.5,4.9,11.9c1.9,3.4,4.1,6.2,6.4,8.6c2.3,2.3,4.5,4.2,6.7,5.6c2.1,1.4,4.1,2.4,5.9,3
					c1.8,0.6,3.1,0.9,3.9,0.9c3.4,0,6.4-0.5,9-1.6c2.6-1,4.9-2.4,6.8-3.9c1.9-1.6,3.5-3.3,4.8-5.2c0.6-0.9,1.2-1.8,1.7-2.7
					c1.3,2.2,2.9,4.2,4.7,5.8c2.2,2,4.7,3.6,7.5,4.6c2.8,1.1,5.5,1.6,8.1,1.6c3.5,0,6.6-0.7,9.4-2c2.8-1.3,5.2-2.9,7.3-4.9
					c2.1-1.9,3.9-4,5.3-6.2c0-0.1,0.1-0.1,0.1-0.2c1.3,2.7,2.9,5,4.8,6.9c2,2,4.4,3.5,7,4.6s5.2,1.6,7.9,1.6c3.3,0,6.2-0.5,8.7-1.4
					c2.5-0.9,4.7-2.1,6.6-3.6c1.9-1.5,3.4-3.2,4.8-5c1-1.5,1.9-2.9,2.6-4.3c0.2,1.1,0.4,2.2,0.7,3.4c0.4,1.9,1,3.6,1.8,5.2
					c0.8,1.6,1.7,2.9,2.8,4c1.1,1,2.5,1.6,4,1.6c2.1,0,4.1-0.4,6-1.2c1.9-0.8,3.6-1.8,5.2-3.1c1.6-1.3,3.1-2.7,4.4-4.3
					c0.7-0.9,1.4-1.8,2-2.7c0,2.7,0,5.4-0.1,8.4c-0.1,3.6-0.1,7,0,10.2c0,3.3,0.2,6.2,0.5,8.8c0.3,2.6,0.8,4.5,1.6,5.7
					c0.8,1.3,1.9,2.2,3.5,2.9c1.5,0.7,3.7,1,6.5,1c2,0,3.4-0.7,4.2-2c0.8-1.3,1.2-3.2,1.2-5.5c0-7.1-0.2-13.9-0.6-20.5
					c-0.4-6.6-0.6-13-0.7-19.2c0-2.4,0.1-4.8,0.3-7.2c0.1-2.3,0.5-4.4,1-6.3c0.5-1.8,1.3-3.3,2.4-4.4c1-1.1,2.4-1.7,4.2-1.7
					c1.6,0,2.9,0.6,3.8,1.8c1,1.2,1.7,2.7,2.2,4.4c0.5,1.7,0.8,3.5,1,5.5s0.2,3.6,0.2,4.9c0,1.4,0,3,0.1,4.9c0,1.9,0,3.6-0.2,5.3
					c-0.2,1.7-0.5,3.1-1.1,4.3c-0.5,1.2-1.3,1.8-2.4,1.8c-1.2,0-2-0.2-2.6-0.6c-0.6-0.4-1.1-0.9-1.4-1.4c-0.3-0.5-0.6-1-0.9-1.5
					c-0.3-0.4-0.7-0.7-1.2-0.7c-0.1,0-0.4,0.1-0.8,0.3c-0.4,0.2-0.8,0.4-1.3,0.8c-0.4,0.3-0.8,0.8-1.2,1.3c-0.3,0.5-0.5,1.2-0.5,1.9
					c0,0.9,0.1,1.8,0.4,2.5c0.3,0.7,0.7,1.4,1.2,1.9s1.1,1,1.8,1.4c0.7,0.4,1.4,0.7,2.1,1c1.4,0.5,2.9,0.7,4.4,0.7
					c3.4,0,6.7-0.4,9.9-1.3c3.2-0.9,6.2-2.2,8.9-4c2.7-1.8,5.1-4.1,7.2-6.8c0.3-0.3,0.5-0.7,0.7-1c0,0.1,0.1,0.2,0.1,0.3
					c1.4,2.9,3.3,5.3,5.5,7.3c2.2,2,4.7,3.6,7.5,4.6c2.8,1.1,5.5,1.6,8.1,1.6c3.5,0,6.6-0.7,9.4-2c2.8-1.3,5.2-2.9,7.3-4.9
					c0.7-0.6,1.3-1.3,1.9-1.9c0.6,2.3,1.8,4.2,3.6,5.7c2.5,2.1,5.9,3.1,10.3,3c4.4,0,8.4-0.5,12-1.4c3.6-0.9,6.7-2,9.4-3.3
					c2.7-1.4,5-2.9,7-4.6c1.9-1.7,3.5-3.5,4.6-5.4c0.6-1,1.2-2.1,1.6-3.3c0.4-1.1,0.8-2.3,1-3.3c0.2-1.1,0.3-2.1,0.4-3
					C828,148.3,827.9,147.6,827.8,147z M796.8,166.1c-1.2,1.1-2.8,1.6-4.6,1.6c-0.7,0-1.1-0.1-1.4-0.4c-0.2-0.3-0.4-0.6-0.4-1.1
					c0-0.4,0.1-1,0.3-1.6c0.2-0.6,0.3-1.3,0.5-2c0.2-0.7,0.3-1.4,0.5-2.2c0.2-0.8,0.3-1.6,0.3-2.3s-0.5-1.4-1.5-2
					c-1-0.5-2.1-0.9-3.3-1.3c0.4-1.3,0.8-2.5,1.1-3.5c0.7-2.2,1.2-4.1,1.6-5.6c0.4-1.5,0.7-2.8,1-3.8c0.2-1,0.4-1.8,0.5-2.5
					c0.4,1,0.9,2.2,1.6,3.7c0.7,1.5,1.4,3.1,2.1,4.8c1.3,3.1,2.2,5.8,2.8,7.9c0.6,2.1,0.9,3.9,0.9,5.2
					C798.7,163.3,798.1,165,796.8,166.1z"/>
			</g>
		</g>
		<g>
			<path class="st0" d="M264.9,110c0.6,0.9,1.4,1.5,2.3,2.1c0.9,0.5,2.1,0.8,3.4,0.8c0.8,0,1.8-0.3,2.9-0.8c1.1-0.5,2-1.4,3-2.4
				c0.9-1.1,1.7-2.4,2.3-4.1c0.6-1.6,0.9-3.5,0.9-5.7c0-0.8-0.1-1.8-0.3-2.9c-0.2-1-0.5-2-1.1-3c-0.5-0.9-1.2-1.7-2.1-2.3
				c-0.9-0.6-2.1-0.9-3.6-0.9c-1.2,0-2.3,0.4-3.4,1.2c-1.1,0.8-2.1,1.8-3,3c-0.9,1.3-1.6,2.7-2.1,4.2c-0.6,1.6-0.8,3.2-0.8,4.8
				c0,1,0.1,2.1,0.4,3.1C263.8,108.2,264.3,109.2,264.9,110z"/>
		</g>
		<g>
			<g>
				<path class="st0" d="M404.1,147.1c-0.2,0-0.5,0.4-1,1.1c-0.5,0.7-1,1.6-1.7,2.7c-0.7,1.1-1.5,2.3-2.4,3.6
					c-0.9,1.3-1.9,2.5-3,3.6c-1.1,1.1-2.4,2.1-3.7,2.9c-1.3,0.8-2.8,1.2-4.3,1.4c0.3-3.6,0.6-7.2,0.8-10.8c0.1-3.6,0.2-7.1,0.3-10.5
					c0-3.4,0-6.6,0-9.6c-0.1-3-0.1-5.7-0.1-8c0-0.7-0.1-1.4-0.1-2c-0.1-0.7-0.3-1.2-0.7-1.7c-0.4-0.5-0.9-0.8-1.6-1
					c-0.7-0.2-1.6-0.2-2.9-0.1c-0.5,0.1-1.1,0.2-1.8,0.3c-0.7,0.1-1.4,0.3-2.1,0.5c-0.7,0.2-1.4,0.5-2.1,0.8c-0.7,0.3-1.3,0.6-1.8,1
					c-0.4,0.3-0.7,0.6-0.9,0.8c-0.2,0.2-0.6,0.6-1.1,1.2c-1.2-0.6-2.4-1-3.6-1.2c-1.2-0.3-2.3-0.4-3.3-0.4c-3.3,0-6.2,0.6-9,1.9
					c-2.7,1.3-5.1,3-7.2,5.1c-2.1,2.2-3.9,4.6-5.3,7.5c-1.4,2.8-2.4,5.8-3,8.8c-0.4,2.1-0.6,4.2-0.6,6.2c0,1.5,0.1,2.8,0.3,4.2
					c0,0,0,0,0,0c-0.8,1.1-1.6,2.1-2.5,3c-0.9,0.9-1.8,1.7-2.8,2.3c-1,0.6-2,0.9-3,0.9c-0.7,0-1.2-0.4-1.5-0.9
					c-0.3-0.6-0.6-1.3-0.7-2.1c-0.1-0.8-0.2-1.7-0.2-2.5c0-0.9,0-1.7,0.1-2.5c0-1.5,0.1-3.1,0.3-4.9c0.1-1.7,0.2-3.5,0.3-5.4
					c0-1.8,0-3.7,0-5.5c-0.1-1.8-0.3-3.6-0.6-5.2c-0.3-1.7-0.7-3.2-1.3-4.6c-0.6-1.4-1.4-2.7-2.3-3.7c-1-1-2.2-1.9-3.6-2.5
					c-1.4-0.6-3.1-0.9-5.2-0.9c-1.5,0-2.9,0.3-4.3,1c-1.4,0.7-2.7,1.6-3.9,2.7c-1.2,1.1-2.4,2.4-3.4,3.8c-1,1.5-1.9,3-2.7,4.5
					c0.1-1.6,0.2-3.2,0.3-4.8c0.1-1.6,0.2-3.2,0.3-4.8c0-0.5-0.1-1.2-0.2-2c-0.1-0.8-0.4-1.5-0.9-2.2c-0.5-0.7-1.2-1.2-2.1-1.6
					c-0.9-0.4-2.2-0.4-3.8-0.1c-1.1,0.2-2.2,0.6-3.2,1c-1,0.4-2,1-2.8,1.9c-0.9,0.8-1.6,1.9-2.2,3.1c-0.6,1.2-1,2.7-1.2,4.5
					c-0.1,0.4-0.1,1.1-0.2,2.2c0,1.1-0.1,2.5-0.2,4.1c-0.1,1.6-0.1,3.5-0.2,5.5c0,2-0.1,4.1-0.1,6.3c0,0.3,0,1.3-0.1,3.1
					c-0.1,1.5-0.1,3.2-0.1,5.1c-0.9,1.2-1.8,2.4-2.7,3.5c-1,1.1-1.9,2-3,2.7c-1,0.7-2,1.1-3,1.1c-0.9,0-1.5-0.6-1.9-1.9
					c-0.4-1.3-0.7-3-0.8-5.1c-0.1-2.1-0.2-4.4-0.1-7c0.1-2.6,0.2-5.2,0.3-7.8c0.1-2.6,0.3-5.1,0.5-7.4c0.1-2.3,0.2-4.2,0.2-5.7
					c0-0.8-0.1-1.5-0.2-2.1c-0.1-0.7-0.3-1.3-0.6-1.8c-0.3-0.6-0.6-1-1.1-1.3c-0.5-0.3-1-0.5-1.7-0.5c-1.2,0-2.5,0.1-3.8,0.4
					c-1.3,0.2-2.5,0.6-3.7,1c-1.2,0.4-2.2,0.9-3,1.5c-0.9,0.6-1.5,1.2-1.8,1.8c-0.4,0.8-0.7,2.1-0.9,3.9c-0.2,1.7-0.4,3.6-0.5,5.7
					c-0.1,2.1-0.2,4.3-0.2,6.5c0,2.2,0,4.2,0,6c0,1.8,0.1,3.3,0.1,4.4c0,0.5,0,0.9,0,1.1c-0.3,0.4-0.5,0.8-0.8,1.2
					c-0.9,1.3-1.7,2.4-2.6,3.5c-0.9,1.1-1.8,2-2.6,2.7c-0.9,0.7-1.6,1.1-2.3,1.1c-0.8,0-1.6-0.4-2.5-1.1c-0.9-0.7-1.7-1.6-2.6-2.6
					c-0.8-1.1-1.6-2.2-2.3-3.5c-0.7-1.3-1.4-2.6-2-3.8c-0.6-1.2-1-2.3-1.4-3.2c-0.3-0.9-0.5-1.6-0.5-2c0-1,0.4-2,1.3-3
					c0.9-1,1.8-2.1,2.9-3.4c1.1-1.3,2-2.8,2.9-4.5c0.9-1.7,1.3-3.8,1.3-6.2c0-0.8-0.2-1.6-0.6-2.5c-0.4-0.9-1-1.7-1.8-2.4
					c-0.8-0.8-1.8-1.4-2.9-1.8c-1.1-0.5-2.3-0.7-3.7-0.7c-1.7,0-3.3,0.4-4.8,1.1c-1.6,0.7-3,1.7-4.4,2.9c-1.4,1.2-2.7,2.6-3.9,4.1
					c-1.2,1.5-2.2,3.1-3.1,4.6c0.2-4.9,0.3-9.5,0.4-13.8c0.1-4.3,0.3-8.5,0.5-12.8c0.2-4.3,0.4-8.6,0.6-13.1
					c0.2-4.5,0.5-9.4,0.9-14.8c0.1-1,0.1-1.9,0.1-2.6c0-0.7,0-1.2,0.1-1.7c0-0.5,0-0.9,0.1-1.3c0-0.4,0-0.8,0-1.4
					c0-0.5-0.1-1.2-0.2-2.1c-0.1-0.9-0.4-1.7-0.9-2.5c-0.5-0.8-1.2-1.4-2.2-1.8c-1-0.4-2.4-0.5-4.1-0.1c-1.5,0.3-3,0.7-4.3,1.2
					c-1.3,0.5-2.4,1.1-3.4,1.9c-1,0.8-1.7,1.9-2.3,3.3c-0.6,1.4-0.9,3.1-1,5.2c-0.1,1.6-0.2,3.3-0.2,5.1c0,1.8,0,3.8,0,6
					c0,2.2,0,4.6,0,7.3c0,2.7,0,5.6-0.1,8.8c-0.1,9.6-0.1,19.1,0,28.4c0.1,6,0.2,12.1,0.3,18.3c-0.7,1.3-1.6,2.7-2.6,4.2
					c-1.1,1.6-2.4,3.1-3.7,4.4c-1.4,1.3-2.7,1.9-4.1,1.9c-0.7,0-1.3-0.5-1.7-1.4c-0.5-0.9-0.8-2.1-1-3.6c-0.2-1.5-0.4-3.2-0.4-5.1
					c-0.1-1.9-0.1-3.9,0-6c0.1-3.1,0.2-6.1,0.4-9.2c0.1-3.1,0.2-5.6,0.2-7.6c0-0.8,0-1.5-0.1-2.1c-0.1-0.7-0.3-1.3-0.5-1.8
					s-0.6-1-0.9-1.2c-0.8-0.5-1.6-0.8-2.7-0.8c-1,0-2.1,0.1-3.2,0.4c-1.1,0.2-2.1,0.6-3,0.9c-1,0.4-1.7,0.6-2.3,0.8
					c-1.5-1.1-2.9-1.9-4.5-2.5c-1.5-0.6-2.9-0.8-4-0.8c-0.9,0-1.7,0-2.5,0.1c-0.8,0.1-1.6,0.2-2.4,0.4c-3.1,0.7-5.9,2-8.4,3.9
					c-2.5,1.9-4.6,4.2-6.3,6.8c-1.7,2.7-3.1,5.6-4.1,8.7c-1,3.2-1.4,6.4-1.4,9.6c0,3.9,0.6,7.3,1.7,10.1c1.1,2.8,2.6,5.1,4.5,7
					c1.8,1.9,3.9,3.3,6.1,4.3c2.2,1,4.4,1.7,6.5,2c0.6,0.1,1.2,0.2,1.8,0.2c0.6,0,1.2,0.1,1.7,0.1c2.4,0,4.5-0.5,6.3-1.5
					c1.7-1,3.3-2.3,4.6-3.9c0.8,1.5,1.7,2.7,2.9,3.7c1.1,1,2.4,1.4,4,1.4c2.8,0,5.3-0.6,7.6-1.9c2.3-1.2,4.3-2.8,6-4.7
					c1.8-1.9,3.3-4,4.5-6.2c0.5-0.8,0.9-1.6,1.3-2.4c0,0.6,0,1.2,0,1.9c0,1.4,0.1,2.8,0.1,4.2c0.1,1.4,0.1,2.8,0.1,4.2
					c0,0.3,0,0.8,0.1,1.4c0.1,0.6,0.3,1.2,0.8,1.8c0.4,0.6,1.1,1.1,1.9,1.5c0.9,0.4,2,0.5,3.5,0.3c1-0.1,1.9-0.2,2.8-0.3
					c0.9-0.1,1.7-0.4,2.4-0.9c0.7-0.4,1.3-1.1,1.8-2c0.5-0.9,0.8-2.1,1-3.7c0-0.4,0.1-1.2,0.1-2.5c0-1.3,0-2.6,0.1-4
					c0.2-4.2,0.4-7.9,0.8-11.3c0.4-3.4,1-6.2,1.8-8.6c0.8-2.4,1.8-4.2,3-5.5c1.2-1.3,2.7-1.9,4.5-1.9c0.4,0,0.7,0.1,1,0.4
					c0.3,0.2,0.5,0.6,0.6,0.9c0.2,0.4,0.3,0.8,0.3,1.2c0.1,0.4,0.1,0.7,0.1,1c0,1-0.3,1.9-0.8,2.7c-0.5,0.8-1.1,1.6-1.9,2.4
					c-0.8,0.8-1.6,1.5-2.5,2.2c-0.9,0.7-1.7,1.4-2.5,2.2c-0.8,0.7-1.4,1.4-1.9,2.2c-0.5,0.8-0.8,1.6-0.8,2.6c0,0.7,0.3,1.8,0.8,3.2
					c0.5,1.4,1.2,2.9,2.1,4.6c0.9,1.7,1.9,3.4,3,5.1c1.1,1.7,2.3,3.3,3.5,4.8c1.2,1.5,2.4,2.6,3.7,3.6c1.2,0.9,2.4,1.4,3.4,1.5
					c2.2,0,4.3-0.4,6.2-1.2c1.9-0.8,3.7-1.9,5.4-3.2c1.7-1.3,3.2-2.8,4.5-4.4c1.3-1.5,2.4-3,3.3-4.5c0.1,0.8,0.3,1.6,0.5,2.4
					c0.5,1.9,1.1,3.7,1.8,5.4c0.8,1.6,1.7,3,2.9,4.1c1.2,1.1,2.5,1.6,4.1,1.6c2.1,0,4.2-0.4,6.1-1.2c1.9-0.8,3.7-1.9,5.4-3.2
					c1.6-1.3,3.1-2.8,4.5-4.4c0.7-0.9,1.4-1.8,2-2.7c0,0,0,0,0,0.1c0.2,2.6,0.6,4.8,1.1,6.6c0.3,1.2,0.7,2.1,1.1,2.8
					c0.3,0.7,0.8,1.2,1.3,1.5c0.5,0.3,1.1,0.5,1.8,0.6c0.7,0,1.7,0,2.8-0.1c1.6-0.2,2.7-0.4,3.6-0.8c0.8-0.4,1.5-0.8,1.9-1.3
					c0.8-0.9,1.3-2,1.5-3.5c0.2-1.5,0.3-3.4,0.3-5.6c0.1-4.1,0.4-7.9,0.8-11.4c0.4-3.5,1-6.5,1.7-9c0.7-2.5,1.6-4.5,2.7-5.9
					c1.1-1.4,2.4-2.1,3.9-2.1c1,0,1.6,0.6,2,1.8c0.3,1.2,0.6,2.6,0.7,4.3c0.1,1.7,0.1,3.4,0,5.2c-0.1,1.8-0.1,3.3-0.1,4.5
					c0,0.9,0,1.8,0,2.7c0,0.9,0,1.8,0.1,2.7c0.1,2.3,0.2,4.5,0.6,6.7c0.3,2.2,0.9,4.1,1.7,5.8c0.8,1.7,1.9,3.1,3.2,4.1
					c1.4,1.1,3.2,1.6,5.4,1.6c2.7,0,5.1-0.6,7.2-1.8c2.2-1.2,4.1-2.6,5.8-4.4c1.7-1.7,3.2-3.7,4.5-5.8c0.1-0.2,0.2-0.3,0.2-0.4
					c1,2.2,2.2,4.2,3.6,5.8c1.7,1.9,3.6,3.3,5.7,4.4c2.1,1.1,4.2,1.8,6.2,2.3c1.5,0.4,3.1,0.5,4.7,0.5c1.6,0,3-0.2,4.3-0.7
					c1.3-0.4,2.4-1,3.5-1.8c0,2.9-0.1,5.7-0.3,8.3c-0.2,2.6-0.6,4.8-1.2,6.8c-0.6,1.9-1.4,3.5-2.5,4.6c-1.1,1.1-2.5,1.7-4.3,1.7
					c-1.1,0-1.8-0.4-2.4-1.1c-0.5-0.7-0.9-1.6-1.2-2.7c-0.3-1.1-0.5-2.3-0.7-3.5c-0.2-1.3-0.4-2.5-0.7-3.6c-0.3-1.1-0.7-2-1.3-2.7
					c-0.6-0.7-1.3-1.1-2.3-1.1c-1,0-1.8,0.3-2.7,0.9c-0.8,0.6-1.6,1.4-2.2,2.3c-0.6,0.9-1.1,1.9-1.5,2.9c-0.4,1-0.6,2-0.6,2.8
					c0,2.8,0.6,5,1.8,6.6c1.2,1.6,2.6,2.8,4.2,3.6c1.7,0.8,3.4,1.3,5.3,1.5c1.8,0.2,3.5,0.3,4.8,0.3c3.2,0,6-0.7,8.4-2.1
					c2.4-1.4,4.5-3.3,6.2-5.7c1.7-2.4,3.2-5.2,4.4-8.4c1.2-3.2,2.2-6.7,2.9-10.4c2.4-1,4.7-2.3,6.8-4.2c2.1-1.8,4-3.8,5.7-5.9
					c1.7-2.1,3.1-4.1,4.1-6.1c1.1-2,1.7-3.6,2-4.8c0-0.3,0.1-0.7,0.2-1.4c0.1-0.6,0.2-1.2,0.2-1.8c0-0.6-0.1-1.1-0.3-1.5
					C404.9,147.3,404.6,147.1,404.1,147.1z M177.8,164.9c-0.7,0.5-1.4,0.7-2.1,0.7c-1.1,0-2.2-0.3-3.4-0.8c-1.2-0.5-2.3-1.5-3.3-2.9
					c-1-1.4-1.9-3.1-2.6-5.4c-0.7-2.2-1-5-1-8.4c0-2.3,0.2-4.7,0.6-7.1c0.4-2.4,1-4.6,1.8-6.6c0.8-2,1.8-3.6,3-4.8
					c1.2-1.2,2.5-1.9,4.1-1.9c0.9,0,1.6,0.3,2.2,0.9c0.6,0.6,1,1.4,1.3,2.2c0.3,0.9,0.5,1.7,0.6,2.6c0.1,0.9,0.2,1.6,0.2,2.2v9.5
					c0,1.8,0,3.6,0.1,5.3c0,1.7,0.1,3.3,0.1,4.8c0,1.5,0.1,2.8,0.1,4c0,1.2,0.1,2.1,0.1,2.8C179.1,163.5,178.5,164.4,177.8,164.9z
					 M372,163.2c-0.6,1-1.1,1.7-1.8,2c-0.6,0.3-1.2,0.5-1.8,0.5c-1.1,0-2.2-0.3-3.4-0.8c-1.2-0.5-2.3-1.5-3.3-2.9
					c-1-1.4-1.9-3.1-2.6-5.4c-0.7-2.2-1-5-1-8.4c0-1.8,0.1-3.7,0.4-5.7c0.2-1.9,0.6-3.8,1.2-5.5c0.5-1.7,1.2-3.3,1.9-4.7
					c0.8-1.4,1.6-2.5,2.6-3.3c1-0.8,2.1-1.2,3.4-1.2c1.1,0,1.9,0.5,2.4,1.4c0.6,0.9,1,2.1,1.2,3.5c0.3,1.4,0.4,3,0.5,4.8
					c0.1,1.8,0.2,3.5,0.3,5.1V163.2z"/>
			</g>
		</g>
		<g>
			<path class="st0" d="M436.5,137.3c-0.9-0.5-1.9-0.7-3.1-0.6c-2.1,0.3-4,0.4-5.9,0.6c-1.8,0.1-3.8,0.2-5.7,0.3
				c-2,0.1-4.1,0.2-6.3,0.3c-2.3,0.1-4.8,0.3-7.7,0.6c-0.8,0-1.5,0.2-2.2,0.3c-0.7,0.2-1.3,0.4-1.8,0.6c-0.5,0.2-0.8,0.6-1,1
				c-0.2,0.4-0.1,0.9,0.2,1.5c0.2,0.6,1.1,1,2.5,1.3c1.4,0.3,3,0.6,4.8,0.7c1.8,0.2,3.5,0.3,5.1,0.3c1.7,0,2.9,0.1,3.8,0.1
				c1.4,0,2.9,0,4.4,0c1.5,0,2.9,0,4.3-0.1c1.4-0.1,2.7-0.2,3.9-0.3c1.2-0.1,2.3-0.3,3.2-0.6c1.4-0.4,2.4-1,2.9-1.8
				c0.5-0.8,0.6-1.5,0.3-2.3C437.9,138.5,437.4,137.8,436.5,137.3z"/>
		</g>
		<g>
			<g>
				<path class="st0" d="M156.2,94.4c-0.1-1.2-0.3-2.4-0.5-3.6c-2.6-14-13.2-26.3-26.8-30.7c-14.7-4.7-32.1,0.2-42.1,12
					c-15.2-7.1-34.3-4.1-47.1,6.6c-2.8,2.3-3.2,6.4-1.1,9.3c2.2,3,6.4,3.5,9.3,1.1c9.5-7.7,23.7-9.6,34.7-4.1
					c7.4,3.7,13,10.2,16.9,17.5c10.3,19.2,7.9,44.5-5.8,61.5c-1.2,1.5-2.5,2.9-3.1,4.7c-1.8,5.4,5.6,7.4,9.4,8.2
					c10.1,2,21.3-0.1,29-7.4c9.7-9.2,12.3-25,6.1-36.8C148.8,125.6,157.5,109.8,156.2,94.4z M110.2,164.2c4.7-8,7.8-17.2,8.9-26.9
					c0.9-0.1,1.8-0.1,2.7-0.2c2.2,2.9,3.4,6.5,3.4,10.2C125.2,155.9,118.6,163.1,110.2,164.2z M123.8,122.9
					c-1.4,0.4-2.9,0.7-4.4,0.8c-0.1-0.8-0.1-1.6-0.2-2.4c-1.8-16.7-9.5-32-20.9-41.8c7.2-7.3,18.2-10.1,28.6-5.8
					c7.1,3,12.7,9.1,14.9,16.5C146,104.7,137.4,119.1,123.8,122.9z"/>
			</g>
		</g>
		<g>
			<g>
				<path class="st0" d="M62.9,60.4c5.1,0,10,1.1,14.4,3c1.7,0.7,3.2,1.5,4.8,2.5c-1.8-2.8-4.4-5.1-5.2-8.6
					c-0.9-3.5,0.5-7.4,3.2-9.7c2.8-2.2,6.4-2.9,9.1-5.4c2.4-2.2,4.2-5.1,5.2-8.2c0.8-2.3,1.2-4.6,1.2-7c0-11.5-9.4-20.9-20.9-20.9
					c-4.2,0-8.3,1.3-11.8,3.6C58.3,3.6,51.1,0,43.3,0C32.5,0,22.9,7.3,19.9,17.6C8.8,18.1,0,27.3,0,38.5c0,10.2,7.3,18.9,17.3,20.6
					h0.3c0.8,0,1.6,0.1,2.4,0.3c1.1,0.2,2.2,0.5,3.1,0.9l1.5,0.6c2.3,1.3,4.3,3.2,5.8,5.4c1.8,2.8,2.7,6.1,2.9,9.4
					c0.5-0.7,1-1.4,1.6-2.1C41.6,65.5,51.7,60.4,62.9,60.4z M25.7,53c-0.7,0.8-1.4,1.5-1.9,2.3c-0.1,0.2-0.3,0.4-0.5,0.6
					c0,0-0.1,0.1-0.2,0.2c-0.8-0.2-1.6-0.5-2.4-0.6c-1-0.1-1.9-0.3-2.9-0.3c-8.1-1.5-14-8.5-14-16.8c0-9.4,7.7-17.1,17-17.1h0.3
					l1.7,0.2l0.4-1.7c2.1-9.3,10.5-16.1,20-16.1c7.2,0,13.7,3.6,17.5,9.7l1.2,1.9l1.7-1.4c3.1-2.6,7-4,11-4
					c9.4,0,17.1,7.7,17.1,17.1c0,5.7-2.8,10.9-7.4,14.1c-0.3-0.2-0.7-0.3-1-0.4c-0.1-0.1-0.2-0.1-0.3-0.1c-0.3-0.1-0.6-0.3-0.9-0.4
					c-0.8-0.3-1.5-0.6-2.3-0.9c-0.3-0.1-0.5-0.2-0.8-0.3c-0.2-0.1-0.4-0.2-0.5-0.2c-0.5-0.1-0.9-0.3-1.4-0.5
					c-0.5-0.1-0.9-0.3-1.4-0.4c-0.2,0-0.4-0.1-0.6-0.1c-0.5-0.2-1-0.3-1.6-0.4c-0.2,0-0.4-0.1-0.6-0.1c-0.5-0.1-0.9-0.2-1.4-0.3
					c-0.9-0.2-1.9-0.3-2.9-0.5c-0.5,0-0.9-0.1-1.4-0.2h-0.2c-0.8,0-1.7-0.1-2.5-0.1c-0.6,0-1.1,0-1.7,0c-0.6,0-1.1,0-1.5,0
					c-0.7,0-1.4,0-2.1,0.1c-0.4,0-0.9,0.1-1.3,0.2c-0.1,0-0.1,0-0.2,0c-0.2,0-0.4,0.1-0.5,0.1c-0.7,0.1-1.3,0.2-2,0.3
					c-1.4,0.2-2.7,0.4-4,0.8l0,0c-0.6,0.2-1.2,0.4-1.9,0.6c-3.2,0.9-6.4,2.1-9.4,3.7c-0.6,0.3-1.3,0.6-1.9,1
					c-0.7,0.4-1.3,0.8-1.9,1.2l-0.5,0.3c-0.2,0.1-0.5,0.3-0.6,0.5c-1,0.7-2.1,1.4-3,2.3c-0.8,0.6-1.6,1.3-2.4,2
					c-0.2,0.1-0.5,0.4-0.7,0.6c-0.1,0.1-0.3,0.2-0.4,0.4c-0.7,0.7-1.4,1.4-2.1,2.2C26.1,52.4,25.9,52.8,25.7,53z M26.8,57.7
					c0.5-0.6,1-1.3,1.5-1.8c0.3-0.3,0.5-0.6,0.8-0.9c0.4-0.5,0.8-0.9,1.2-1.3c0.5-0.4,0.9-0.9,1.4-1.3c0.4-0.5,0.9-0.9,1.3-1.2
					c1.4-1.2,2.8-2.3,4.3-3.3l0.6-0.3c0.6-0.5,1.3-0.9,2-1.3c5.9-3.5,12.7-5.6,19.6-6.1c0.5,0,1.2-0.1,1.9-0.1c0.5,0,0.9,0,1.4,0
					c0.7,0,1.4,0,2.2,0c1.4,0.1,2.8,0.2,4.2,0.4c0.7,0.1,1.3,0.2,1.9,0.3c0.4,0,0.7,0.1,1.1,0.2c1.9,0.4,3.7,0.9,5.6,1.5
					c0.6,0.2,1.2,0.5,1.8,0.7c0,0,0.1,0,0.1,0c-0.3,0.2-0.6,0.4-0.9,0.6c-3.7,2.6-5.9,6.9-5.9,11.5c0,1.4,0.2,2.7,0.5,3.9
					c-3.4-0.9-7-1.4-10.6-1.4c-10.1,0-19.8,4-26.9,11C34.3,64.1,31.1,60.1,26.8,57.7z"/>
			</g>
		</g>
	</g>
</g>
</svg>
